<?xml version="1.0" encoding="utf-8"?>
<!-- Generator: Adobe Illustrator 12.0.0, SVG Export Plug-In . SVG Version: 6.00 Build 51448)  -->
<!DOCTYPE svg PUBLIC "-//W3C//DTD SVG 1.1//EN" "http://www.w3.org/Graphics/SVG/1.1/DTD/svg11.dtd" [
	<!ENTITY ns_svg "http://www.w3.org/2000/svg">
	<!ENTITY ns_xlink "http://www.w3.org/1999/xlink">
]>
<svg  version="1.1" id="HQFL" xmlns="&ns_svg;" xmlns:xlink="&ns_xlink;" width="529.774" height="529.965"
	 viewBox="0 0 529.774 529.965" overflow="visible" enable-background="new 0 0 529.774 529.965" xml:space="preserve">
<path fill="#0C3C92" d="M265.075,529.965c145.831,0,264.699-119.062,264.699-265.077C529.774,119.059,410.906,0,265.075,0
	C119.06,0,0,119.059,0,264.888C0,410.903,119.06,529.965,265.075,529.965z"/>
<path fill="#FFFFFF" d="M19.281,265.262c0,135.739,110.431,246.167,246.168,246.167c135.737,0,246.168-110.429,246.168-246.167
	c0-135.841-110.432-246.355-246.168-246.355C129.712,18.907,19.281,129.421,19.281,265.262z M34.632,265.262
	c0-127.377,103.544-231.005,230.817-231.005c127.272,0,230.817,103.628,230.817,231.005c0,127.273-103.545,230.816-230.817,230.816
	C138.176,496.078,34.632,392.535,34.632,265.262z"/>
<path fill="#FFFFFF" d="M265.637,402.854c-75.628,0-137.217-61.588-137.217-137.218c0-75.442,61.589-137.031,137.217-137.031
	c75.254,0,137.032,61.589,137.032,137.031C402.668,341.267,340.891,402.854,265.637,402.854z"/>
<path fill="#FFFFFF" d="M101.743,265.823c0,90.165,73.27,163.519,163.332,163.519c89.959,0,163.145-73.354,163.145-163.519
	c0-90.062-73.186-163.332-163.145-163.332C175.013,102.492,101.743,175.762,101.743,265.823z M116.906,265.823
	c0-81.701,66.468-148.168,148.168-148.168c81.598,0,147.981,66.467,147.981,148.168c0,81.804-66.384,148.355-147.981,148.355
	C183.374,414.179,116.906,347.627,116.906,265.823z"/>
<path fill="#FF1100" d="M167.544,158.933c52.042-24.523,77.126,0.561,115.128,4.68c35.007,12.917,68.139-2.059,99.963-6.739
	c-25.083,101.65,10.857,147.701,17.037,221.458c-70.388-3.372-127.11-49.421-210.601-8.801
	C198.62,299.144,190.569,228.009,167.544,158.933z"/>
<path fill="#FFFFFF" d="M278.367,162.115v49.608h96.596l8.237-55.038C342.575,166.234,310.003,172.411,278.367,162.115z"/>
<g>
	<polygon fill="#FFFFFF" points="485.41,296.711 486.908,287.353 459.575,283.046 441.417,280.237 440.292,280.051 438.797,289.411 
		441.417,289.784 459.201,292.593 456.393,311.128 441.417,308.693 435.989,307.756 434.491,317.303 441.417,318.425 
		459.575,321.233 481.106,324.605 482.601,315.246 464.256,312.25 467.065,293.903 	"/>
	<polygon fill="#FFFFFF" points="441.417,329.658 430,325.54 426.815,334.528 441.417,339.581 459.575,345.943 471.371,349.877 
		474.552,340.891 459.575,335.838 	"/>
	<path fill="#FFFFFF" d="M441.417,229.507l-2.993-0.937l0.373,9.923l2.62,0.936l8.052,2.62l0.746,18.907l-8.798,3.745l-1.684,0.748
		l0.373,10.296l1.311-0.562l18.157-8.05l26.959-11.793l-0.375-10.109l-26.584-9.36L441.417,229.507z M475.301,250.474l-15.727,6.364
		l-1.496,0.749l-0.561-12.917l2.057,0.749L475.301,250.474z"/>
	<path fill="#FFFFFF" d="M426.069,339.205l-5.243,8.612l7.112,8.798l-9.735,16.101l-11.23-1.874l-5.428,8.8l39.873,6.551
		l10.296,1.498l5.24-8.612l-15.536-19.84L426.069,339.205z M444.975,377.769l-3.558-0.747l-14.79-2.808l6.554-11.045l8.236,10.107
		L444.975,377.769z"/>
	<polygon fill="#FFFFFF" points="415.024,159.119 397.425,139.651 406.972,131.04 422.697,148.637 428.689,143.395 412.774,125.798 
		420.638,118.685 437.672,137.592 441.417,134.223 443.477,132.35 441.417,129.917 420.077,106.33 391.624,131.976 385.071,137.778 
		391.624,145.08 409.032,164.548 	"/>
	<path fill="#FFFFFF" d="M422.136,188.885l5.802,14.976c2.249,5.616,3.745,9.173,4.494,10.67c1.122,2.247,2.62,3.932,4.306,5.055
		c1.311,0.936,2.996,1.685,4.68,1.871c0.373,0.188,0.937,0.188,1.311,0.188c2.247,0.187,4.306,0,6.365-0.749
		c2.62-1.124,4.494-2.622,5.804-4.867c1.311-2.06,1.869-4.681,1.684-7.676c0.938,0.936,1.871,1.685,2.994,2.247
		c0.937,0.375,1.686,0.748,2.622,0.748c2.06,0.563,4.119,0.376,6.178-0.373c1.871-0.749,3.555-1.873,4.68-3.371
		c1.125-1.497,2.06-3.182,2.435-4.866c0.374-1.686,0.374-3.371,0-5.242c-0.375-1.873-1.124-4.493-2.62-7.862l-6.741-17.597
		l-6.553,2.434l-18.157,6.926L422.136,188.885z M459.575,184.579l2.622-0.936l2.06,5.054c1.498,4.306,2.433,6.74,2.809,7.676
		c0.373,1.685,0.188,2.995-0.376,3.932c-0.562,1.122-1.498,1.871-2.809,2.434c-1.498,0.561-2.808,0.561-3.931,0
		c-0.188,0-0.188,0-0.375,0c-0.935-0.563-1.869-1.686-2.621-2.996c-0.373-0.749-1.31-2.808-2.62-6.364l-2.244-5.803L459.575,184.579
		z M444.787,190.383l2.809,7.113c1.498,4.118,2.247,6.739,2.247,8.237c0.186,1.31-0.188,2.434-0.938,3.556
		c-0.561,0.937-1.686,1.686-2.996,2.247c-1.498,0.561-2.808,0.561-4.118,0.188c-0.188,0-0.188-0.188-0.373-0.188
		c-1.125-0.561-1.871-1.31-2.62-2.434c-0.562-0.749-1.313-2.808-2.623-5.991l-3.182-8.237l8.425-3.182L444.787,190.383z"/>
	<path fill="#FFFFFF" d="M387.318,119.807c1.31-2.433,1.871-4.866,1.684-7.3c-0.374-2.622-1.496-4.868-3.558-7.115
		c2.247,0.188,4.307-0.187,6.18-0.936l0.186-0.187c1.871-0.937,3.558-2.434,4.68-4.306c0.937-1.685,1.498-3.557,1.498-5.429
		c0-1.871-0.188-3.557-0.935-5.242c-0.751-1.497-1.874-2.995-3.372-4.119c-0.561-0.561-1.31-1.124-2.057-1.685
		c-1.313-0.936-2.808-1.871-4.869-3.183l-7.861-4.68l-8.236-4.867l-21.341,35.568l-2.996,4.868l2.996,1.685l10.856,6.552
		c5.243,2.995,8.61,4.868,9.92,5.615c2.436,0.937,4.683,1.498,6.741,1.312c0.749,0,1.311-0.188,2.06-0.375
		c1.311-0.375,2.62-0.937,3.931-1.685C384.698,123.178,386.193,121.493,387.318,119.807z M379.081,114.192
		c0,0.187,0,0.187-0.188,0.375c-0.749,1.31-1.874,2.059-2.996,2.434c-1.311,0.375-2.62,0.375-3.931-0.188
		c-0.937-0.187-2.808-1.31-5.804-2.995l-7.488-4.68l6.554-10.67l6.551,3.931c3.742,2.247,5.992,3.744,6.927,4.867
		c0,0.187,0.188,0.187,0.188,0.375c0.749,0.936,1.122,2.06,1.122,2.995C380.204,111.945,379.828,113.068,379.081,114.192z
		 M380.579,98.28c-0.375-0.187-0.937-0.375-1.686-0.749c-0.937-0.748-2.433-1.497-4.307-2.621l-5.428-3.183l5.616-9.36l4.118,2.434
		l0.562,0.375c3.933,2.247,6.177,3.744,6.926,4.307c1.311,0.936,2.06,2.059,2.247,3.183c0.188,1.31,0,2.432-0.749,3.743
		c-0.937,1.311-1.871,2.06-3.181,2.435C383.387,99.215,382.075,99.029,380.579,98.28z"/>
	<path fill="#FFFFFF" d="M352.122,61.963l-2.806-0.937l-6.178-2.059l-8.612,24.523c-1.123,3.557-2.245,6.178-2.996,7.488
		c-0.747,1.498-2.057,2.434-3.555,2.996c-1.687,0.749-3.745,0.561-6.366-0.375c-2.62-0.749-4.304-2.059-5.428-3.744
		c-1.125-1.498-1.498-3.371-1.125-5.242c0-1.31,0.751-3.744,2.062-7.675l8.425-24.149l-8.988-2.995l-8.049,23.774
		c-1.687,5.054-2.62,8.798-2.996,11.606c-0.188,1.873,0,3.744,0.751,5.803c0.747,2.059,2.057,3.932,3.743,5.616
		c1.871,1.685,4.867,3.37,9.171,4.868c3.56,1.124,6.554,1.685,9.174,1.498c2.435,0,4.494-0.749,6.365-1.686
		c1.874-1.122,3.369-2.62,4.68-4.68c1.313-2.059,2.808-5.803,4.68-11.231l5.243-15.163L352.122,61.963z"/>
	<polygon fill="#FFFFFF" points="163.612,115.502 157.06,104.457 177.279,92.289 173.161,85.55 152.942,97.718 147.513,88.733 
		169.416,75.628 165.297,68.889 139.838,84.052 135.345,86.86 139.838,94.348 159.494,127.296 190.195,108.763 186.263,102.023 	"/>
	<path fill="#FFFFFF" d="M238.868,84.24c-1.498,1.872-3.557,2.995-5.991,3.37c-3.369,0.561-6.365-0.187-8.985-2.434
		c-2.434-2.059-4.119-6.177-5.054-11.98c-0.936-5.616-0.563-9.735,1.31-12.543c1.685-2.807,4.305-4.492,7.862-5.054
		c2.434-0.375,4.68,0,6.552,1.124c2.059,1.124,3.557,2.808,4.493,5.054l8.798-3.744c-1.497-3.557-3.556-5.99-5.99-7.676
		c-4.118-2.808-8.986-3.744-14.789-2.995c-6.552,1.124-11.419,4.118-14.789,8.986c-3.183,4.867-4.306,11.231-2.996,19.095
		c1.124,7.3,3.932,12.729,8.613,16.286c4.679,3.557,10.108,4.867,16.286,3.932c5.055-0.749,8.985-2.622,11.794-5.616
		c2.808-2.995,4.493-7.113,5.242-12.355l-9.735-1.498C241.301,79.747,240.364,82.367,238.868,84.24z"/>
	<polygon fill="#FFFFFF" points="272.75,45.864 263.39,45.677 261.705,92.289 294.84,93.412 295.215,85.55 271.44,84.801 	"/>
	<polygon fill="#FFFFFF" points="114.378,115.127 123.364,104.457 117.187,99.215 110.26,107.452 93.226,127.857 99.215,133.099 
		108.201,122.429 110.26,124.113 138.341,147.513 139.838,145.642 144.331,140.212 139.838,136.468 	"/>
	<path fill="#FFFFFF" d="M110.26,159.868c-1.122,0.188-2.246,0.375-2.995,0.562c-1.873,0.562-3.932,1.311-5.991,2.622
		c1.498-3.932,1.686-7.301,0.749-10.296c-0.936-2.995-2.995-5.242-6.177-6.927c-2.434-1.498-4.868-2.059-7.488-1.873
		c-0.936,0-1.873,0.188-2.808,0.563c-1.311,0.375-2.621,1.124-3.744,2.059c-1.873,1.497-4.118,4.493-6.552,8.986l-9.547,17.597
		l19.843,11.044l21.341,11.794l3.369-6.178l1.124-2.246l-1.124-0.563l-15.911-8.986l0.936-1.685
		c0.936-1.871,1.872-3.182,2.621-3.931c0.936-0.749,1.873-1.124,3.183-1.498s4.118-0.749,8.423-1.124h0.749l11.607-0.936
		l5.615-9.921l-10.857,0.561C114.004,159.494,111.945,159.682,110.26,159.868z M94.723,160.43c-0.187,1.311-1.497,3.932-3.556,7.863
		l-3.557,6.178l-2.059-1.124l-8.423-4.68l3.744-6.552c1.871-3.371,2.995-5.43,3.369-5.991c0.562-0.561,0.936-0.936,1.311-1.31
		c0.749-0.375,1.31-0.749,2.059-0.936c1.31-0.188,2.62,0,4.118,0.748c1.124,0.749,2.059,1.498,2.622,2.622
		C94.723,158.184,94.91,159.307,94.723,160.43z"/>
	<polygon fill="#FFFFFF" points="108.764,340.515 101.837,344.634 110.26,358.675 115.502,367.099 110.26,370.283 104.457,373.838 
		92.289,353.434 85.55,357.552 85.363,357.552 85.55,357.928 97.531,377.956 88.733,383.196 85.55,378.144 75.629,361.482 
		68.702,365.601 85.55,393.683 86.674,395.552 110.26,381.328 127.108,371.218 110.26,343.138 	"/>
	<path fill="#FFFFFF" d="M85.55,291.471l7.675-0.563l-0.563-9.546l-7.113,0.563l-10.67,0.748l-0.375-6.178
		c-0.375-4.305-0.749-7.675-1.311-9.922c-0.561-1.498-1.498-3.183-2.62-4.679c-1.312-1.498-2.996-2.808-4.867-3.745
		c-1.685-0.748-3.558-1.123-5.803-1.123c-0.563,0-1.124,0-1.685,0.187c-3.745,0.188-6.74,1.311-8.986,3.371
		c-2.247,1.871-3.557,4.305-4.118,6.925c-0.375,1.873-0.375,5.616,0.187,11.419l0.936,15.163l13.667-0.935L85.55,291.471z
		 M53.539,284.17l-0.187-4.682c-0.375-3.369-0.375-5.614-0.188-6.738c0.188-1.685,0.749-2.995,1.685-4.118
		c1.124-0.936,2.434-1.685,4.118-1.685c0.375,0,0.749,0,0.937,0c1.122,0,2.059,0.375,2.807,0.749
		c1.124,0.749,2.059,1.685,2.622,2.809c0.561,1.31,0.936,3.744,1.31,7.488l0.187,5.241l-6.925,0.374L53.539,284.17z"/>
	<path fill="#FFFFFF" d="M72.634,343.323c3.556-1.122,6.178-3.555,7.674-7.112c1.124-2.435,1.498-6.365,1.124-11.605
		c-0.187-4.118-0.375-6.739-0.375-7.863c0-1.684,0.375-2.994,0.936-3.931c0.563-0.749,1.312-1.498,2.434-1.684
		c0.375-0.188,0.749-0.376,1.124-0.376c1.31,0,2.62,0.376,3.932,1.122c1.685,1.123,2.995,2.996,3.93,5.992
		c0.937,2.809,0.937,5.241,0,7.3c-0.749,2.06-2.62,3.745-5.428,5.241l3.744,8.612c4.868-2.247,8.05-5.243,9.735-9.174
		c1.498-3.931,1.498-8.798-0.375-14.414c-1.31-3.931-2.808-6.927-4.867-9.174c-1.872-2.244-4.305-3.742-6.927-4.491
		c-1.31-0.188-2.434-0.373-3.744-0.373c-1.311,0-2.809,0.185-4.119,0.559c-2.808,0.937-5.054,2.435-6.552,4.118
		c-1.685,1.874-2.621,3.933-2.995,6.553c-0.375,2.436-0.375,5.99,0,10.672c0.375,4.865,0.187,7.861-0.375,9.359
		c-0.375,1.122-1.124,1.874-2.247,2.247c-1.122,0.373-2.246,0.186-3.181-0.562c-1.685-1.125-2.809-2.996-3.744-5.616
		c-0.749-2.62-0.937-4.682-0.375-6.18c0.561-1.684,2.059-2.994,4.305-4.119l-3.37-8.982c-1.124,0.373-2.059,0.934-2.995,1.31
		c-2.434,1.498-4.306,3.743-5.43,6.363c-1.685,3.745-1.497,8.236,0.375,14.041c1.124,3.372,2.622,6.178,4.493,8.236
		c0.188,0.188,0.375,0.563,0.563,0.749c1.685,1.684,3.556,2.809,5.803,3.369C67.953,344.075,70.387,344.075,72.634,343.323z"/>
	<path fill="#FFFFFF" d="M52.603,230.256c1.311,2.432,2.995,4.305,4.868,5.99c0.749,0.749,1.685,1.31,2.434,1.873
		c2.434,1.497,5.241,2.62,8.611,3.556c6.552,1.873,12.167,1.873,17.035-0.187c0.561-0.375,1.124-0.561,1.685-0.936
		c5.242-2.808,8.799-7.488,10.858-14.228c1.871-6.739,1.31-12.542-1.685-17.784c-2.247-3.932-5.804-6.927-10.858-9.174
		c-1.311-0.561-2.995-1.122-4.68-1.685c-7.301-2.059-13.667-1.685-18.907,1.124c-0.749,0.375-1.312,0.749-2.059,1.124
		c-4.118,2.995-7.114,7.3-8.799,13.104c-0.936,3.744-1.31,7.113-0.936,10.296C50.356,225.576,51.293,228.009,52.603,230.256z
		 M58.967,215.093c0.375-0.937,0.563-1.686,0.937-2.434c1.31-2.434,3.182-4.306,5.429-5.43c3.369-1.685,7.487-1.685,12.729-0.187
		c2.995,0.936,5.616,2.059,7.488,3.557c1.498,0.936,2.434,2.059,3.369,3.369c1.873,3.183,2.247,6.552,1.31,10.109
		c-0.748,2.807-2.432,5.054-4.679,6.739c-0.562,0.375-1.124,0.749-1.872,1.124c-3.371,1.685-7.675,1.685-12.729,0.187
		c-5.242-1.498-8.799-3.744-10.67-6.739c-0.188-0.188-0.188-0.375-0.375-0.562C58.22,222.02,58.032,218.649,58.967,215.093z"/>
</g>
<g>
	<path fill="#FFFFFF" d="M315.807,431.683l-7.114,1.874c0,3.182-1.31,5.987-3.372,8.795c-1.868,2.623-3.742,4.494-5.613,5.805
		c-0.188,0.188-0.373,0.376-0.562,0.376l0.562,2.244l1.495,5.805c3.934-2.621,7.114-5.805,9.361-9.735l8.798,32.947l8.613-2.245
		L315.807,431.683z"/>
	<path fill="#FFFFFF" d="M297.46,463.695c-1.687-1.874-3.931-2.996-6.739-3.558c4.494-2.623,6.551-5.989,6.363-10.107
		c-0.186-2.996-1.495-5.617-3.742-7.679c-2.809-2.808-6.551-3.931-10.857-3.742c-2.62,0.188-4.867,0.749-6.927,1.874
		c-2.059,1.122-3.743,2.432-4.68,4.304c-1.123,1.683-1.872,3.933-2.247,6.926l8.237,0.938c0.188-2.062,0.749-3.745,1.874-4.867
		c0.934-1.125,2.244-1.687,3.742-1.687c1.686-0.186,2.996,0.188,3.931,1.125c0.937,0.935,1.498,2.244,1.686,3.742
		c0,1.874-0.563,3.37-1.874,4.683c-1.122,1.122-2.993,1.684-5.428,1.868l-0.562,7.303c1.498-0.562,2.996-0.749,4.118-0.935
		c1.687,0,3.182,0.559,4.492,1.869c1.313,1.31,2.062,2.996,2.062,5.243c0.188,2.435-0.376,4.306-1.498,5.802
		c-1.311,1.498-2.809,2.249-4.683,2.435c-1.683,0-3.181-0.373-4.491-1.498c-1.311-1.122-2.06-2.806-2.435-5.055l-8.797,1.498
		c0.749,3.93,2.434,7.114,5.43,9.361c2.993,2.247,6.551,3.369,10.857,3.182c4.494-0.376,8.049-1.872,11.045-5.053
		c1.498-1.687,2.62-3.561,3.369-5.617c0.373-1.686,0.561-3.371,0.561-5.055c0-1.311-0.188-2.436-0.561-3.369
		C299.146,466.128,298.397,464.817,297.46,463.695z"/>
	<path fill="#FFFFFF" d="M250.286,438.421c-0.375,0-0.561,0-0.936,0c-3.931,0-7.301,1.311-10.108,3.931
		c-2.996,2.623-4.681,6.554-4.868,11.233c-0.188,4.682,0.936,8.424,3.37,11.42c2.62,2.996,5.803,4.492,9.36,4.68
		c0.936,0.186,1.685,0,2.246,0c2.434-0.373,4.68-1.498,6.552-3.369c-0.749,5.24-1.685,8.798-3.183,10.481
		c-0.936,1.125-2.059,1.874-3.369,2.249c-0.375,0-0.936,0-1.498,0c-1.31,0-2.62-0.563-3.369-1.498
		c-0.936-0.751-1.311-2.247-1.497-3.933l-8.799,0.562c0.375,3.93,1.685,6.926,3.932,8.988c2.059,2.057,5.054,3.179,8.798,3.366
		c0.749,0,1.685,0,2.434,0c4.118-0.373,7.488-2.057,10.296-5.053c3.369-3.745,5.242-9.734,5.803-18.347
		c0.375-8.425-0.748-14.6-3.744-18.53C258.897,440.668,255.153,438.609,250.286,438.421z M253.468,461.448
		c-1.124,1.122-2.434,1.684-4.118,1.684c0,0-0.187,0-0.375,0c-1.685,0-3.183-0.747-4.305-2.245
		c-1.124-1.498-1.685-3.745-1.498-6.738c0.188-2.996,0.936-5.243,2.06-6.554c1.124-1.125,2.62-1.684,4.118-1.684
		c0.188,0,0.188,0,0.188,0c1.685,0.186,3.181,0.935,4.492,2.621c1.124,1.683,1.686,3.93,1.686,6.926
		C255.528,458.079,254.779,460.138,253.468,461.448z"/>
	<path fill="#FFFFFF" d="M216.778,440.483c-3.183,1.31-6.178,2.057-8.611,2.244l-2.059,7.861c4.679-0.186,8.986-1.311,13.104-3.555
		l-8.986,32.946l8.798,2.245l12.355-45.676l-7.113-1.871C222.393,437.111,219.96,439.17,216.778,440.483z"/>
</g>
<path fill="#FFFFFF" d="M375.709,435.24c7.114,0,12.918-5.802,12.918-12.917c0-7.114-5.804-12.918-12.918-12.918
	c-6.927,0-12.729,5.804-12.729,12.918C362.981,429.438,368.783,435.24,375.709,435.24z"/>
<path fill="#FFFFFF" d="M152.193,439.919c6.927,0,12.729-5.804,12.729-12.916c0-7.114-5.803-12.916-12.729-12.916
	c-7.113,0-12.916,5.802-12.916,12.916C139.277,434.115,145.08,439.919,152.193,439.919z"/>
<path fill="#FFFFFF" d="M163.814,149.081l-21.553,2.478l33.168,288.401l24.136-2.775l-33.168-288.399L163.814,149.081z"/>
<path fill="#0C3C92" d="M401.537,378.175c-2.042-24.394-7.392-46.054-12.563-67.004c-10.445-42.311-21.247-86.062-4.52-153.849
	l0.67-2.706l-2.76,0.405c-8.376,1.231-16.994,3.206-25.329,5.115c-23.778,5.444-48.362,11.074-73.717,1.72l-0.214-0.08l-0.23-0.025
	c-11.264-1.22-21.577-4.374-31.549-7.423c-23.377-7.147-47.549-14.539-84.579,2.911l-1.503,0.708l0.526,1.577
	c23.535,70.605,30.752,141.178,21.449,209.758l-0.47,3.464l3.143-1.528c55.267-26.892,97.647-15.646,142.518-3.738
	c21.488,5.703,43.708,11.599,67.174,12.721l2.133,0.102L401.537,378.175z M333.368,363.859
	c-42.775-11.35-87.005-22.999-142.107,2.628c2.359-18.437,3.635-36.997,3.635-55.674c0-1.311-0.038-2.621-0.05-3.931
	c-0.122-13.33-0.825-26.709-2.143-40.125c27.406-10.528,56.275-14.335,86.974-8.973l-0.548-92.757
	c1.036,0.147,2.071,0.296,3.125,0.413c26.313,9.623,51.376,3.895,75.616-1.656c7.703-1.763,15.019-3.371,22.344-4.57
	c-5.85,24.591-8.196,46.103-8.196,65.465c0,14.235,1.229,27.344,3.139,39.774c2.498,16.255,6.167,31.341,9.839,46.217
	c0.114,0.465,0.229,0.932,0.343,1.396c4.977,20.147,10.052,41.006,12.205,64.183C375.288,374.889,353.977,369.328,333.368,363.859z"
	/>
<rect x="28.362" y="284.824" transform="matrix(-0.1143 -0.9935 0.9935 -0.1143 -102.0034 497.7983)" fill="#0C3C92" width="285.102" height="19.095"/>
<path fill="none" d="M384.995,310.671c-66.019,3.222-122.114-20.919-190.149-3.788c0.012,1.31,0.05,2.62,0.05,3.931
	c0,18.677-1.276,37.237-3.635,55.674c55.103-25.627,99.332-13.978,142.107-2.628c20.609,5.469,41.92,11.029,64.175,12.391
	c-2.153-23.177-7.229-44.035-12.205-64.183C385.223,311.603,385.109,311.136,384.995,310.671z"/>
<path fill="none" d="M375.156,264.454c-1.909-12.43-3.139-25.539-3.139-39.774c0-19.362,2.347-40.874,8.196-65.465
	c-7.325,1.2-14.641,2.807-22.344,4.57c-24.24,5.551-49.304,11.279-75.616,1.656c-1.054-0.117-2.089-0.266-3.125-0.413l0.541,92.649
	C310.537,260.616,342.805,266.09,375.156,264.454z"/>
<path fill="#FFFFFF" d="M384.995,310.671c-3.672-14.876-7.341-29.962-9.839-46.217c-32.351,1.636-95.479-6.669-95.479-6.669
	c-30.699-5.362-59.568-1.555-86.974,8.973c1.318,13.416,2.021,26.795,2.143,40.125C262.881,289.752,318.976,313.893,384.995,310.671
	z"/>
<path fill="#FFFFFF" d="M227.074,248.227c-19.844,0-35.943-19.282-35.943-42.868c0-23.775,16.099-43.056,35.943-43.056
	c19.656,0,35.941,19.281,35.941,43.056C263.015,228.945,246.73,248.227,227.074,248.227z"/>
<path fill="#FF1100" d="M207.405,182.145c10.408-4.905,15.425,0.112,23.025,0.936c7.001,2.583,13.628-0.412,19.993-1.348
	c-5.017,20.33,2.171,29.54,3.408,44.292c-14.078-0.675-25.422-9.884-42.121-1.76C213.62,210.187,212.01,195.959,207.405,182.145z"/>
<path fill="#FFFFFF" d="M229.57,182.781v9.922h19.319l1.647-11.008C242.411,183.604,235.897,184.84,229.57,182.781z"/>
<path fill="#FFFFFF" d="M206.659,180.174l-4.311,0.496l6.634,57.68l4.827-0.555l-6.634-57.68L206.659,180.174z"/>
<path fill="#0C3C92" d="M254.204,225.993c-0.408-4.878-1.478-9.21-2.513-13.401c-2.089-8.462-4.25-17.212-0.904-30.77l0.134-0.541
	l-0.552,0.081c-1.675,0.246-3.399,0.641-5.066,1.023c-4.755,1.088-9.672,2.215-14.743,0.344l-0.043-0.016l-0.046-0.005
	c-2.253-0.244-4.315-0.875-6.31-1.484c-4.675-1.43-9.51-2.908-16.916,0.582l-0.301,0.142l0.105,0.315
	c4.707,14.121,6.15,28.235,4.29,41.952l-0.094,0.693l0.629-0.306c11.053-5.378,19.529-3.129,28.503-0.748
	c4.298,1.141,8.742,2.32,13.435,2.544l0.427,0.02L254.204,225.993z M240.57,223.13c-8.555-2.27-17.401-4.6-28.421,0.525
	c0.472-3.688,0.727-7.399,0.727-11.135c0-0.262-0.008-0.524-0.01-0.786c-0.024-2.666-0.165-5.342-0.428-8.025
	c5.481-2.106,11.255-2.867,17.395-1.795l-0.109-18.551c0.207,0.029,0.414,0.059,0.625,0.083c5.262,1.925,10.275,0.779,15.123-0.331
	c1.541-0.353,3.004-0.674,4.469-0.914c-1.17,4.918-1.639,9.221-1.639,13.093c0,2.847,0.246,5.469,0.628,7.955
	c0.5,3.251,1.233,6.268,1.968,9.244c0.022,0.093,0.045,0.186,0.068,0.279c0.995,4.029,2.01,8.201,2.441,12.836
	C248.954,225.335,244.692,224.224,240.57,223.13z"/>
<rect x="179.569" y="207.323" transform="matrix(-0.1143 -0.9935 0.9935 -0.1143 23.9903 439.8538)" fill="#0C3C92" width="57.02" height="3.819"/>
<path fill="none" d="M250.896,212.492c-13.204,0.644-24.423-4.184-38.03-0.758c0.002,0.262,0.01,0.524,0.01,0.786
	c0,3.735-0.255,7.447-0.727,11.135c11.021-5.125,19.866-2.795,28.421-0.525c4.122,1.094,8.384,2.206,12.835,2.478
	c-0.431-4.635-1.446-8.807-2.441-12.836C250.941,212.678,250.918,212.585,250.896,212.492z"/>
<path fill="none" d="M248.928,203.249c-0.382-2.486-0.628-5.108-0.628-7.955c0-3.872,0.469-8.175,1.639-13.093
	c-1.465,0.24-2.928,0.562-4.469,0.914c-4.848,1.11-9.861,2.256-15.123,0.331c-0.211-0.023-0.418-0.053-0.625-0.083l0.108,18.53
	C236.004,202.481,242.458,203.576,248.928,203.249z"/>
<path fill="#FFFFFF" d="M250.896,212.492c-0.734-2.976-1.468-5.993-1.968-9.244c-6.47,0.327-19.096-1.334-19.096-1.334
	c-6.14-1.072-11.914-0.311-17.395,1.795c0.263,2.683,0.404,5.359,0.428,8.025C226.473,208.308,237.691,213.136,250.896,212.492z"/>
<path fill="#FFFFFF" d="M219.311,200.003c-3.969,0-7.188-3.856-7.188-8.573c0-4.755,3.22-8.611,7.188-8.611
	c3.931,0,7.188,3.856,7.188,8.611C226.5,196.147,223.242,200.003,219.311,200.003z"/>
</svg>
