<?xml version="1.0" encoding="UTF-8" standalone="no"?>
<!-- Generator: Adobe Illustrator 12.0.0, SVG Export Plug-In  -->

<svg
   xmlns:dc="http://purl.org/dc/elements/1.1/"
   xmlns:cc="http://creativecommons.org/ns#"
   xmlns:rdf="http://www.w3.org/1999/02/22-rdf-syntax-ns#"
   xmlns:svg="http://www.w3.org/2000/svg"
   xmlns="http://www.w3.org/2000/svg"
   xmlns:sodipodi="http://sodipodi.sourceforge.net/DTD/sodipodi-0.dtd"
   xmlns:inkscape="http://www.inkscape.org/namespaces/inkscape"
   version="1.1"
   width="350"
   height="420"
   viewBox="-0.2724609 -0.4365234 350 420"
   enable-background="new -0.2724609 -0.4365234 375 457"
   xml:space="preserve"
   id="svg3091"
   inkscape:version="0.48.1 "
   sodipodi:docname="flamengo_braz_logo.svg"><metadata
   id="metadata3123"><rdf:RDF><cc:Work
       rdf:about=""><dc:format>image/svg+xml</dc:format><dc:type
         rdf:resource="http://purl.org/dc/dcmitype/StillImage" /></cc:Work></rdf:RDF></metadata><sodipodi:namedview
   pagecolor="#ffffff"
   bordercolor="#666666"
   borderopacity="1"
   objecttolerance="10"
   gridtolerance="10"
   guidetolerance="10"
   inkscape:pageopacity="0"
   inkscape:pageshadow="2"
   inkscape:window-width="1366"
   inkscape:window-height="706"
   id="namedview3121"
   showgrid="false"
   inkscape:zoom="0.63676149"
   inkscape:cx="187.5"
   inkscape:cy="228.5"
   inkscape:window-x="-8"
   inkscape:window-y="-8"
   inkscape:window-maximized="1"
   inkscape:current-layer="svg3091" />
<defs
   id="defs3093">
</defs>












<g
   id="g3125"
   transform="matrix(0.87943034,0,0,0.87943034,10,10.972509)"><path
     id="path3095"
     d="M 374.20996,169.29639 V 0 H 0 V 169.29639 C 2.0698242,295.38379 64.42334,390.94238 187.14844,455.88281 309.78613,390.94238 372.22656,295.38379 374.20996,169.29639 l 0,0 z"
     clip-rule="evenodd"
     inkscape:connector-curvature="0"
     style="fill-rule:evenodd" /><path
     id="path3097"
     d="m 366.62012,169.29639 v -1.63916 H 7.6767578 v 1.63916 c 0.3447266,18.80078 1.9833984,36.91162 5.0878902,54.33349 H 361.53125 c 3.01953,-17.42187 4.74414,-35.53271 5.08887,-54.33349 l 0,0 z"
     clip-rule="evenodd"
     inkscape:connector-curvature="0"
     style="fill:#ff0000;fill-rule:evenodd" /><polygon
     id="polygon3099"
     points="190.94336,111.77197 366.62012,111.77197 366.62012,111.77197 366.62012,55.886719 190.94336,55.886719 "
     clip-rule="evenodd"
     style="fill:#ff0000;fill-rule:evenodd" /><polygon
     id="polygon3101"
     points="183.354,7.5893555 7.6767578,7.5893555 7.6767578,7.5893555 7.6767578,160.06787 183.354,160.06787 "
     clip-rule="evenodd"
     style="fill:#ff0000;fill-rule:evenodd" /><path
     id="path3103"
     d="m 28.287598,279.51367 c 7.675781,19.75098 17.421875,38.29395 29.322754,55.88672 H 316.68652 c 11.90137,-17.50684 21.64649,-36.13574 29.32129,-55.88672 H 28.287598 l 0,0 z"
     clip-rule="evenodd"
     inkscape:connector-curvature="0"
     style="fill:#ff0000;fill-rule:evenodd" /><path
     id="path3105"
     d="m 106.59766,391.28711 c 22.85449,20.69824 49.76269,39.32715 80.55078,55.96973 30.78808,-16.64258 57.69824,-35.27149 80.55176,-55.96973 H 106.59766 l 0,0 z"
     clip-rule="evenodd"
     inkscape:connector-curvature="0"
     style="fill:#ff0000;fill-rule:evenodd" /><path
     id="path3107"
     d="M 77.446289,19.231934 C 63.734375,12.246582 54.765625,11.297852 50.539062,16.299805 c 9.486817,1.897461 14.057618,7.676758 13.539551,17.335449 v 83.915036 c 3.708496,1.81104 7.848145,2.93213 12.505371,3.3628 1.035645,0.0869 1.984375,0.17334 2.933106,0.25927 v -20.958 c 16.988769,1.46679 28.63232,9.83252 35.01465,25.26953 6.46826,15.43847 13.53955,23.28613 21.21533,23.71826 7.67676,0.43017 12.59082,-6.29639 14.83398,-20.18213 -11.29785,12.07471 -20.69824,8.79639 -28.11523,-9.91846 C 114.9624,100.30176 100.646,90.125 79.51709,88.313477 V 26.648926 c 3.104492,-1.034668 6.382324,-1.637696 9.91748,-1.811035 8.796387,-0.344727 16.64551,2.587402 23.45801,8.797363 6.81299,6.294922 10.43554,13.97168 10.78027,22.94043 0.3457,7.589355 -2.06982,14.489746 -7.24365,20.698242 v 9.314453 h 3.53613 c 2.84473,-1.638672 5.60596,-3.62207 8.10596,-5.950195 4.91699,-4.312989 8.10742,-9.14209 9.66016,-14.317383 0.86279,-3.276856 2.41455,-5.778321 4.56982,-7.589356 -2.15527,-2.155761 -3.53613,-5.08789 -4.2251,-8.710449 -1.7251,-8.882324 -5.95019,-16.817383 -12.76465,-23.716309 -7.50293,-7.761718 -16.90381,-11.55664 -28.37402,-11.55664 -7.071289,0 -13.625488,1.465332 -19.491211,4.483887 l 0,0 z"
     clip-rule="evenodd"
     inkscape:connector-curvature="0"
     style="fill:#ffffff;fill-rule:evenodd" /><path
     id="path3109"
     d="M 93.487305,28.459961 C 90.038574,27.511719 86.330078,27.597656 82.363281,28.71875 v 29.754395 c 1.55127,3.105468 4.139161,3.966796 7.675293,2.845703 4.484864,-1.465332 5.518555,-4.3125 3.276856,-8.624024 -2.672852,-5.08789 -2.586426,-13.195312 0.171875,-24.234863 l 0,0 z"
     clip-rule="evenodd"
     inkscape:connector-curvature="0"
     style="fill:#ffffff;fill-rule:evenodd" /><path
     id="path3111"
     d="m 92.539062,42.949707 c 3.709473,1.121094 5.605469,3.535156 5.605469,7.331055 v 39.412109 c 7.245119,2.933594 13.369139,7.416992 18.284669,13.282719 h 17.24805 c 2.67382,0.25683 3.79492,1.81103 3.44921,4.74316 -0.43066,2.84473 -3.27539,6.03662 -8.45068,9.57275 12.07422,1.20704 17.42041,-4.65722 16.12695,-17.680172 -1.29296,-12.936523 2.06983,-22.165039 10.00391,-27.51123 -7.33008,-2.156739 -14.23047,3.622558 -20.61133,17.334472 h -20.6123 V 53.125488 h 6.89892 c -0.77636,-4.483886 -2.3291,-8.624023 -5.00146,-12.331543 H 96.593262 c -2.415528,0.170899 -3.794922,0.861328 -4.0542,2.155762 l 0,0 z"
     clip-rule="evenodd"
     inkscape:connector-curvature="0"
     style="fill:#ffffff;fill-rule:evenodd" /><path
     id="path3113"
     d="m 61.23291,33.635254 c 0,0 0,0 0,-0.08594 0,-0.863769 0,-1.725097 0,-2.501464 -6.036621,2.329101 -11.384277,5.864257 -16.299805,10.435058 -9.832519,9.228516 -16.731445,21.561035 -20.698242,36.913574 -0.604492,2.2417 -1.63916,4.051758 -2.932129,5.259766 1.466797,2.155762 2.5,4.571289 3.104493,7.330078 2.329101,9.918464 8.019531,19.491214 17.075683,28.805664 8.970215,9.22803 20.095703,13.79932 33.463379,13.71192 7.847656,0 14.574219,-1.11963 20.352539,-3.3628 v -9.40039 c -4.743652,2.84571 -11.039551,3.88184 -18.973633,3.01953 -11.728515,-1.20849 -20.438476,-6.03808 -26.217773,-14.4038 -5.77832,-8.45166 -8.624512,-18.024421 -8.624512,-28.978034 0,-10.865723 2.846192,-20.094238 8.452149,-27.855957 3.363769,-4.570801 7.072265,-7.935059 11.297851,-10.004394 v -8.882813 l 0,0 z"
     clip-rule="evenodd"
     inkscape:connector-curvature="0"
     style="fill:#ffffff;fill-rule:evenodd" /><path
     id="path3115"
     d="m 98.144531,109.18457 v 26.21777 c -0.171875,8.53809 -1.80957,13.71192 -5.001464,15.52344 5.950195,0.51807 11.039553,-0.77539 15.264643,-3.88086 4.65723,2.75977 9.83252,4.05322 15.52442,3.88086 -5.51953,-4.91553 -8.88379,-11.55615 -10.0044,-19.83496 -0.69043,-1.38037 -1.29345,-2.93311 -1.98339,-4.48584 -3.19092,-7.67578 -7.76172,-13.45361 -13.799809,-17.42041 l 0,0 z"
     clip-rule="evenodd"
     inkscape:connector-curvature="0"
     style="fill:#ffffff;fill-rule:evenodd" /><path
     id="path3117"
     d="m 74.946289,136.35107 c -3.880859,0.0864 -7.589355,-0.25976 -11.125977,-1.03466 -0.862304,7.15722 -4.311523,13.45361 -10.004394,18.97314 8.106934,-0.34424 14.40332,-2.67334 18.973144,-6.98633 4.916993,4.22657 10.953614,6.38233 17.939942,6.46826 -5.433594,-4.39746 -8.883789,-10.26269 -10.436524,-17.59375 -1.724121,0.17334 -3.449218,0.17334 -5.346191,0.17334 l 0,0 z"
     clip-rule="evenodd"
     inkscape:connector-curvature="0"
     style="fill:#ffffff;fill-rule:evenodd" /><path
     id="path3119"
     d="m 140.83594,49.50293 c 0.2583,1.294433 0.60302,2.501465 1.12109,3.622558 h 10.26172 c 3.36426,0.776368 5.86572,3.794434 7.50439,8.969727 2.50049,7.761719 6.81299,11.988281 13.10938,12.678711 -6.72803,-8.883789 -8.79785,-18.28418 -6.12402,-28.116699 2.5874,-9.917481 0.69043,-18.283204 -5.6919,-24.923829 1.7251,12.590821 -0.17236,18.973145 -5.77832,19.060547 h -16.90381 c 1.1211,2.844727 1.89746,5.690918 2.50147,8.708985 l 0,0 z"
     clip-rule="evenodd"
     inkscape:connector-curvature="0"
     style="fill:#ffffff;fill-rule:evenodd" /></g>
</svg>